<svg width="80" height="80" viewBox="0 0 80 80" fill="none" xmlns="http://www.w3.org/2000/svg">
<mask id="mask0_10_88" style="mask-type:luminance" maskUnits="userSpaceOnUse" x="0" y="0" width="80" height="80">
<path d="M79.5039 0.980469H0.64209V79.8422H79.5039V0.980469Z" fill="white"/>
</mask>
<g mask="url(#mask0_10_88)">
<path d="M40.073 79.8422C61.8501 79.8422 79.5039 62.1885 79.5039 40.4114C79.5039 18.6342 61.8501 0.980469 40.073 0.980469C18.2959 0.980469 0.64209 18.6342 0.64209 40.4114C0.64209 62.1885 18.2959 79.8422 40.073 79.8422Z" fill="url(#paint0_linear_10_88)"/>
<path d="M27.3334 43.2936L32.0116 56.242C32.0116 56.242 32.5964 57.4535 33.2227 57.4535C33.849 57.4535 43.1642 47.7628 43.1642 47.7628L53.5231 27.7549L27.5003 39.9511L27.3334 43.2936Z" fill="#C8DAEA"/>
<path d="M33.5357 46.6144L32.6377 56.1586C32.6377 56.1586 32.2617 59.0831 35.1855 56.1586C38.1093 53.2343 40.9079 50.9791 40.9079 50.9791" fill="#A9C6D8"/>
<path d="M27.4177 43.7558L17.7946 40.6203C17.7946 40.6203 16.6445 40.1537 17.0149 39.0956C17.0911 38.8774 17.2449 38.6918 17.7049 38.3727C19.8372 36.8865 57.1706 23.4679 57.1706 23.4679C57.1706 23.4679 58.2248 23.1127 58.8464 23.3489C59.0002 23.3965 59.1386 23.4842 59.2475 23.6028C59.3563 23.7215 59.4317 23.8668 59.4659 24.0241C59.5331 24.3021 59.5611 24.588 59.5493 24.8736C59.5463 25.1207 59.5165 25.3497 59.4938 25.7088C59.2664 29.3776 52.462 56.7584 52.462 56.7584C52.462 56.7584 52.0549 58.3605 50.5962 58.4155C50.2377 58.427 49.8807 58.3663 49.5461 58.2369C49.2116 58.1075 48.9066 57.9121 48.6493 57.6623C45.7869 55.2001 35.8937 48.5515 33.7077 47.0892C33.6582 47.0557 33.6168 47.0119 33.5859 46.9609C33.5549 46.9098 33.5352 46.8528 33.5283 46.7935C33.4977 46.6394 33.6653 46.4485 33.6653 46.4485C33.6653 46.4485 50.8919 31.1362 51.3503 29.5287C51.3858 29.4042 51.2517 29.3428 51.0716 29.3973C49.9276 29.8182 30.0931 42.3437 27.904 43.7262C27.7464 43.7738 27.58 43.7839 27.4177 43.7558Z" fill="white"/>
</g>
<defs>
<linearGradient id="paint0_linear_10_88" x1="40.073" y1="79.8422" x2="40.073" y2="0.980469" gradientUnits="userSpaceOnUse">
<stop stop-color="#1D93D2"/>
<stop offset="1" stop-color="#38B0E3"/>
</linearGradient>
</defs>
</svg>
