<svg width="196" height="196" viewBox="0 0 196 196" fill="none" xmlns="http://www.w3.org/2000/svg">
<path d="M97.5845 195.169C151.479 195.169 195.169 151.479 195.169 97.5845C195.169 43.6901 151.479 0 97.5845 0C43.6901 0 0 43.6901 0 97.5845C0 151.479 43.6901 195.169 97.5845 195.169Z" fill="#1E1E1D"/>
<mask id="mask0_14_22" style="mask-type:luminance" maskUnits="userSpaceOnUse" x="48" y="48" width="95" height="95">
<path d="M142.892 48.793H48.7929V142.971H142.892V48.793Z" fill="white"/>
</mask>
<g mask="url(#mask0_14_22)">
<path d="M104.804 88.6754L139.84 48.793H131.541L101.106 83.4153L76.8157 48.793H48.7929L85.5324 101.153L48.7929 142.971H57.0925L89.2117 106.401L114.869 142.971H142.892M60.088 54.922H72.8384L131.534 137.143H118.781" fill="white"/>
</g>
</svg>
