<svg width="207" height="145" viewBox="0 0 207 145" fill="none" xmlns="http://www.w3.org/2000/svg">
<g clip-path="url(#clip0_6905_323954)">
<path d="M1.66604 144.167C1.4439 144.167 1.23286 144.078 1.07736 143.923C0.921864 143.767 0.833008 143.553 0.833008 143.334L0.838561 60.3058C0.838561 55.8214 2.91836 51.3896 6.54204 48.1464C10.0741 44.9892 14.7502 43.2482 19.7095 43.2482H53.1195V40.9518C53.1168 40.7296 53.2028 40.5186 53.3611 40.3631C53.5166 40.2076 53.7304 40.1187 53.9498 40.1187H90.1755C90.3976 40.1187 90.6087 40.2076 90.7642 40.3631C90.9197 40.5186 91.0085 40.7324 91.0085 40.9545L90.9946 47.2939H107.539C112.401 43.7119 118.179 43.412 119.856 43.4064H133.932V30.0252C133.932 24.4744 138.447 19.9594 143.998 19.9594H153.058V10.8988C153.058 5.34806 157.573 0.833038 163.124 0.833038H176.477C182.028 0.833038 186.543 5.34806 186.543 10.8988V19.9594H195.604C201.155 19.9594 205.67 24.4744 205.67 30.0252V43.3787C205.67 48.9294 201.155 53.4444 195.604 53.4444H186.543V62.505C186.543 68.0558 182.028 72.5708 176.477 72.5708H163.043V123.674C163.043 124.135 162.671 124.507 162.21 124.507H119.842C119.137 124.507 115.439 124.421 111.57 122.864C110.379 122.383 109.26 121.797 108.233 121.117C107.208 121.797 106.092 122.386 104.903 122.866C101.038 124.432 97.3534 124.527 96.6537 124.53H72.2126C71.5073 124.524 67.8253 124.424 63.9684 122.861C63.7073 122.755 63.4463 122.641 63.1881 122.525V126.779C63.1881 127.851 62.9993 131.647 60.7001 135.545C58.8008 138.761 54.1497 144.159 44.3449 144.159L1.66604 144.17V144.167Z" fill="black"/>
<path d="M176.475 1.66606C181.567 1.66606 185.707 5.809 185.707 10.8988V20.7924H195.601C200.694 20.7924 204.834 24.9354 204.834 30.0252V43.3787C204.834 48.4712 200.691 52.6114 195.601 52.6114H185.707V62.505C185.707 67.5976 181.564 71.7378 176.475 71.7378H162.208V123.677H119.84C119.151 123.677 115.605 123.594 111.882 122.092C110.546 121.553 109.327 120.887 108.233 120.106C107.142 120.887 105.923 121.556 104.592 122.094C100.869 123.602 97.3257 123.694 96.6537 123.697H72.2154C71.5434 123.694 68.003 123.597 64.2822 122.089C63.6102 121.817 62.9687 121.511 62.3579 121.175V126.779C62.3579 127.809 62.1774 131.405 59.9837 135.12C58.176 138.183 53.7388 143.323 44.345 143.323L1.66606 143.334L1.67161 60.3058C1.67161 56.0574 3.64867 51.8506 7.09742 48.7684C10.4767 45.7472 14.9557 44.084 19.7095 44.084H53.9554L53.9498 40.9545H90.1755L90.1588 48.1269H107.816C112.656 44.4338 118.598 44.2422 119.859 44.2395H134.765V30.0252C134.765 24.9326 138.908 20.7924 143.998 20.7924H153.891V10.8988C153.891 5.80622 158.034 1.66606 163.124 1.66606H176.477H176.475ZM176.477 0H163.124C157.115 0 152.225 4.88989 152.225 10.8988V19.1264H143.998C137.989 19.1264 133.099 24.0163 133.099 30.0252V42.5734H119.859C118.14 42.5789 112.287 42.8816 107.269 46.4609H91.8305L91.8416 40.9573C91.8416 40.5158 91.6666 40.091 91.3556 39.7772C91.0419 39.4634 90.6198 39.2885 90.1755 39.2885H53.9498C53.5083 39.2885 53.0835 39.4634 52.7697 39.7772C52.4559 40.091 52.281 40.5158 52.2837 40.9573V42.4179H19.7095C14.5447 42.4179 9.67148 44.2339 5.98671 47.5271C2.18532 50.9259 0.00555353 55.5825 0.00555353 60.3058L0 143.334C0 143.775 0.174936 144.2 0.488711 144.511C0.802486 144.822 1.22455 145 1.66606 145L44.345 144.989C54.5662 144.989 59.4284 139.335 61.4193 135.967C63.8268 131.888 64.0211 127.906 64.0239 126.782V123.777C67.8864 125.26 71.5018 125.357 72.2043 125.363H96.6509C97.384 125.36 101.21 125.26 105.214 123.638C106.278 123.208 107.289 122.694 108.23 122.108C109.174 122.694 110.188 123.208 111.257 123.638C115.264 125.254 119.107 125.343 119.837 125.343H162.21C163.13 125.343 163.876 124.596 163.876 123.677V73.4038H176.477C182.486 73.4038 187.376 68.514 187.376 62.505V54.2775H195.604C201.613 54.2775 206.503 49.3876 206.503 43.3787V30.0252C206.503 24.0163 201.613 19.1264 195.604 19.1264H187.376V10.8988C187.376 4.88989 182.486 0 176.477 0V0Z" fill="white"/>
<path d="M10.0016 60.3058L9.99609 107.586C9.99609 115.333 19.7481 115.38 19.7481 115.38H34.39V119.351H9.99609V135.001L44.3447 134.993C54.0106 134.993 54.0273 126.776 54.0273 126.776V52.4115H19.7092C13.828 52.4115 10.0016 56.6211 10.0016 60.3058ZM29.6278 68.1863H34.3817V99.7304H29.6278V68.1863V68.1863ZM106.305 76.0501H86.9209V99.7359H82.0754V72.0904H106.308V56.46H81.8144L81.8311 49.2876H62.2965L62.3076 56.46H57.7176V72.0904H62.5658V107.558C62.5658 115.314 72.2679 115.369 72.2679 115.369H96.6201C96.6201 115.369 106.317 115.327 106.317 107.555H106.311V76.0529L106.305 76.0501ZM144.181 52.5698H119.842C119.842 52.5698 110.149 52.5531 110.149 60.5002V72.1321H129.644V68.2918H134.379V76.0973H119.839C119.839 76.0973 110.149 76.0834 110.149 83.9V107.55C110.149 115.325 119.839 115.344 119.839 115.344H153.877V60.5002C153.877 52.5531 144.178 52.5698 144.178 52.5698H144.181ZM134.379 99.7415H129.644V91.8249H134.379V99.7415Z" fill="white"/>
<path d="M195.601 29.1227H177.378V10.8988C177.378 10.399 176.972 9.99637 176.475 9.99637H163.122C162.622 9.99637 162.219 10.4018 162.219 10.8988V29.1227H143.995C143.495 29.1227 143.093 29.5281 143.093 30.0252V43.3787C143.093 43.8785 143.498 44.2811 143.995 44.2811H162.219V62.505C162.219 63.0049 162.625 63.4075 163.122 63.4075H176.475C176.975 63.4075 177.378 63.0021 177.378 62.505V44.2811H195.601C196.101 44.2811 196.504 43.8757 196.504 43.3787V30.0252C196.504 29.5254 196.098 29.1227 195.601 29.1227Z" fill="#FCAF17"/>
<path d="M168.627 76.286C169.385 76.286 169.763 76.6026 169.763 77.2385C169.763 77.7661 169.471 78.0687 168.885 78.1465L169.838 79.6182H169.28L168.372 78.1853H167.822V79.6182H167.303V76.286H168.622H168.627ZM168.422 77.7661C168.738 77.7661 168.952 77.7244 169.072 77.6411C169.188 77.5578 169.246 77.4162 169.246 77.219C169.246 76.8775 169.013 76.7081 168.544 76.7081H167.828V77.7688H168.422V77.7661Z" fill="white"/>
<path d="M168.421 80.8288C166.833 80.8288 165.542 79.5376 165.542 77.9493C165.542 76.361 166.833 75.0698 168.421 75.0698C170.01 75.0698 171.301 76.361 171.301 77.9493C171.301 79.5376 170.01 80.8288 168.421 80.8288ZM168.421 75.5197C167.083 75.5197 165.992 76.6082 165.992 77.9493C165.992 79.2905 167.083 80.379 168.421 80.379C169.76 80.379 170.851 79.2905 170.851 77.9493C170.851 76.6082 169.76 75.5197 168.421 75.5197Z" fill="white"/>
</g>
<defs>
<clipPath id="clip0_6905_323954">
<rect width="206.5" height="145" fill="white"/>
</clipPath>
</defs>
</svg>
